{
 "asset": {
  "version": "2.0"
 },
 "scene": 0,
 "scenes": [
  {
   "nodes": [
    0
   ]
  }
 ],
 "nodes": [
  {
   "name": "parent",
   "translation": [
    10,
    0,
    0
   ],
   "children": [
    1
   ]
  },
  {
   "name": "child",
   "mesh": 0,
   "rotation": [
    0,
    0.7071067811865476,
    0,
    0.7071067811865476
   ],
   "scale": [
    2,
    2,
    2
   ]
  }
 ],
 "meshes": [
  {
   "name": "cube",
   "primitives": [
    {
     "attributes": {
      "POSITION": 0,
      "NORMAL": 1
     },
     "indices": 2,
     "material": 0
    }
   ]
  }
 ],
 "materials": [
  {
   "name": "red",
   "pbrMetallicRoughness": {
    "baseColorFactor": [
     0.8,
     0.1,
     0.1,
     1
    ],
    "metallicFactor": 0.25,
    "roughnessFactor": 0.5
   },
   "alphaMode": "MASK",
   "alphaCutoff": 0.3,
   "doubleSided": true
  }
 ],
 "buffers": [
  {
   "byteLength": 264,
   "uri": "data:application/octet-stream;base64,"
  }
 ],
 "bufferViews": [
  {
   "buffer": 0,
   "byteOffset": 0,
   "byteLength": 96
  },
  {
   "buffer": 0,
   "byteOffset": 96,
   "byteLength": 96
  },
  {
   "buffer": 0,
   "byteOffset": 192,
   "byteLength": 72
  }
 ],
 "accessors": [
  {
   "bufferView": 0,
   "componentType": 5126,
   "count": 8,
   "type": "VEC3",
   "min": [
    -1,
    -1,
    -1
   ],
   "max": [
    1,
    1,
    1
   ]
  },
  {
   "bufferView": 1,
   "componentType": 5126,
   "count": 8,
   "type": "VEC3"
  },
  {
   "bufferView": 2,
   "componentType": 5123,
   "count": 36,
   "type": "SCALAR"
  }
 ]
}